<?xml version="1.0" standalone="no"?>
<!DOCTYPE svg PUBLIC "-//W3C//DTD SVG 20010904//EN"
 "http://www.w3.org/TR/2001/REC-SVG-20010904/DTD/svg10.dtd">
<svg version="1.0" xmlns="http://www.w3.org/2000/svg"
 width="138.000000pt" height="138.000000pt" viewBox="0 0 138.000000 138.000000"
 preserveAspectRatio="xMidYMid meet">
<metadata>
Created by potrace 1.11, written by Peter Selinger 2001-2013
</metadata>
<g transform="translate(0.000000,138.000000) scale(0.100000,-0.100000)"
fill="#000000" stroke="none">
<path d="M258 1194 c-14 -21 -34 -60 -46 -87 -23 -51 -26 -53 -87 -61 -22 -3
-51 -9 -64 -14 -22 -8 -20 -11 42 -53 56 -38 66 -49 71 -81 9 -56 45 -67 122
-38 23 9 26 15 20 40 -3 17 -9 44 -12 60 -6 25 -3 30 14 30 14 0 28 -16 48
-56 28 -54 30 -55 64 -49 19 3 59 13 89 22 l54 17 -37 29 c-20 16 -36 33 -36
38 0 4 33 41 73 81 46 47 67 74 57 75 -8 2 -69 -10 -135 -26 -137 -33 -122
-38 -180 58 l-33 54 -24 -39z"/>
<path d="M1278 1128 c-32 -17 -58 -35 -58 -39 0 -5 16 -8 35 -7 26 1 43 9 60
30 21 25 32 49 23 48 -2 0 -29 -15 -60 -32z"/>
<path d="M1050 1016 c-159 -62 -167 -66 -149 -76 29 -16 103 -14 142 5 33 15
67 50 91 93 9 15 15 17 -84 -22z"/>
<path d="M710 888 c-76 -27 -321 -89 -403 -102 -75 -12 -141 -27 -146 -32 -14
-14 21 -40 69 -51 63 -14 88 -10 107 17 8 11 18 20 23 20 6 0 28 -36 50 -81
31 -60 45 -79 56 -75 9 3 21 6 27 6 35 1 34 17 -3 95 -22 43 -38 80 -37 81 1
0 25 -2 52 -5 100 -14 254 53 299 130 21 36 18 36 -94 -3z"/>
<path d="M1015 691 c-119 -48 -130 -54 -108 -62 35 -14 96 -9 127 10 30 19 76
81 59 81 -4 -1 -39 -13 -78 -29z"/>
<path d="M686 590 c-60 -16 -169 -41 -243 -56 -74 -15 -141 -33 -151 -40 -14
-10 -12 -14 23 -29 58 -25 112 -22 145 10 14 14 29 25 32 25 3 0 37 -51 76
-112 87 -139 136 -198 165 -198 31 0 67 11 67 20 0 4 -25 38 -56 76 -62 76
-124 165 -141 204 l-10 25 71 0 c82 0 118 17 154 71 l22 34 -22 -1 c-13 0 -72
-14 -132 -29z"/>
</g>
</svg>
